<svg version="1.1" id="search" xmlns="http://www.w3.org/2000/svg" xmlns:xlink="http://www.w3.org/1999/xlink">
  <symbol id="camera" viewBox="0 0 230.629 230.629">
    <path d="M230.629,59.325H0v150.989h230.629V59.325z M115.314,183.373c-26.814,0-48.553-21.738-48.553-48.554
	c0-26.814,21.738-48.553,48.553-48.553s48.555,21.739,48.555,48.553C163.869,161.635,142.129,183.373,115.314,183.373z
	 M88.041,20.315h54.547l17.943,28.93H70.1L88.041,20.315z M144.447,134.819c0,16.089-13.043,29.133-29.133,29.133
	c-16.088,0-29.131-13.044-29.131-29.133c0-16.089,13.043-29.132,29.131-29.132C131.404,105.688,144.447,118.73,144.447,134.819z"></path>
  </symbol>

  <symbol version="1.1" id="Capa_1" xmlns="http://www.w3.org/2000/svg" xmlns:xlink="http://www.w3.org/1999/xlink" x="0px" y="0px"
	 viewBox="0 0 487.95 487.95" style="enable-background:new 0 0 487.95 487.95;" xml:space="preserve">
<g>
	<g>
		<path d="M481.8,453l-140-140.1c27.6-33.1,44.2-75.4,44.2-121.6C386,85.9,299.5,0.2,193.1,0.2S0,86,0,191.4s86.5,191.1,192.9,191.1
			c45.2,0,86.8-15.5,119.8-41.4l140.5,140.5c8.2,8.2,20.4,8.2,28.6,0C490,473.4,490,461.2,481.8,453z M41,191.4
			c0-82.8,68.2-150.1,151.9-150.1s151.9,67.3,151.9,150.1s-68.2,150.1-151.9,150.1S41,274.1,41,191.4z"/>
	</g>
</g>
<g>
</g>
<g>
</g>
<g>
</g>
<g>
</g>
<g>
</g>
<g>
</g>
<g>
</g>
<g>
</g>
<g>
</g>
<g>
</g>
<g>
</g>
<g>
</g>
<g>
</g>
<g>
</g>
<g>
</g>
</symbol>

<symbol version="1.1" id="Layer_1" xmlns="http://www.w3.org/2000/svg" xmlns:xlink="http://www.w3.org/1999/xlink" x="0px" y="0px"
	viewBox="0 0 371.23 371.23" style="enable-background:new 0 0 371.23 371.23;" xml:space="preserve">
<polygon points="371.23,21.213 350.018,0 185.615,164.402 21.213,0 0,21.213 164.402,185.615 0,350.018 21.213,371.23 
	185.615,206.828 350.018,371.23 371.23,350.018 206.828,185.615 "/>
<g>
</g>
<g>
</g>
<g>
</g>
<g>
</g>
<g>
</g>
<g>
</g>
<g>
</g>
<g>
</g>
<g>
</g>
<g>
</g>
<g>
</g>
<g>
</g>
<g>
</g>
<g>
</g>
<g>
</g>
</symbol>
</svg>