<svg version="1.1" xmlns="http://www.w3.org/2000/svg" xmlns:xlink="http://www.w3.org/1999/xlink">
  <symbol id="logo" viewBox="0 0 32 32">
    <path d="M29,16.5A13.08,13.08,0,0,0,25.7,8l0.7-.73L26,6.92A14.42,14.42,0,0,0,16,3,14.42,14.42,0,0,0,6,6.92L5.6,7.26,6.3,8A13.08,13.08,0,0,0,3,16.5a10.57,10.57,0,0,0,3,7.69V27H8a2,2,0,0,0,4,0V19a2,2,0,0,0-4,0H6v3.67A9.7,9.7,0,0,1,4,16.5,12,12,0,0,1,7,8.72L7.67,9.43,8,9.08A11.25,11.25,0,0,1,16,6a11.25,11.25,0,0,1,8,3.08l0.36,0.35L25,8.72a12,12,0,0,1,3,7.78,9.7,9.7,0,0,1-2,6.17V19H24a2,2,0,0,0-4,0v8a2,2,0,0,0,4,0h2V24.19A10.57,10.57,0,0,0,29,16.5ZM10,18a1,1,0,0,1,1,1v8a1,1,0,0,1-2,0V19A1,1,0,0,1,10,18ZM7,20H8v6H7V20ZM24.29,8A12.26,12.26,0,0,0,16,5,12.26,12.26,0,0,0,7.71,8L7,7.3A13.47,13.47,0,0,1,16,4a13.47,13.47,0,0,1,9,3.3ZM22,28a1,1,0,0,1-1-1V19a1,1,0,0,1,2,0v8A1,1,0,0,1,22,28Zm3-2H24V20h1v6Z"></path>
  </symbol>
  <symbol  id="volume_up" viewBox="0 0 513.32 513.32">
    <g>
      <g>
        <g>
          <path d="M96.247,128.33H0v256.66h96.247L181.8,513.32h74.859V0H181.8L96.247,128.33z M213.883,42.777v427.767h-8.555
				l-85.553-128.33H42.777V171.107h76.998l85.553-128.33C205.328,42.777,213.883,42.777,213.883,42.777z"></path>
          <polygon points="427.767,235.272 427.767,149.718 384.99,149.718 384.99,235.272 299.437,235.272 299.437,278.048 
				384.99,278.048 384.99,363.602 427.767,363.602 427.767,278.048 513.32,278.048 513.32,235.272"></polygon>
        </g>
      </g>
    </g>
  </symbol>
  <symbol id="volume_down" viewBox="0 0 513.32 513.32">
    <g>
      <g>
        <g>
          <path d="M96.247,128.33H0v256.66h96.247L181.8,513.32h74.859V0H181.8L96.247,128.33z M213.883,42.777v427.767h-10.694
				l-85.553-128.33H42.777V171.107h74.859l85.553-128.33C203.189,42.777,213.883,42.777,213.883,42.777z"></path>
          <rect x="299.437" y="235.272" width="213.883" height="42.777"></rect>
        </g>
      </g>
    </g>
  </symbol>
  <symbol  id="pre" viewBox="0 0 439.362 439.362">
<g>
	<path d="M362.146,0.412c-2.471-1.143-5.517,0.094-9.138,3.709L150.308,206.828c-1.718,1.524-2.955,3.333-3.715,5.424V18.679
		c0-4.952-1.809-9.234-5.424-12.85c-3.617-3.617-7.9-5.426-12.847-5.426H91.775c-4.952,0-9.233,1.809-12.85,5.426
		C75.308,9.448,73.5,13.73,73.5,18.679v401.986c0,4.948,1.807,9.236,5.424,12.847c3.621,3.62,7.902,5.428,12.85,5.428h36.543
		c4.947,0,9.229-1.808,12.847-5.428c3.615-3.61,5.424-7.898,5.424-12.847V227.097c0.763,1.903,2,3.717,3.715,5.425l202.705,202.712
		c3.621,3.617,6.667,4.859,9.138,3.72c2.478-1.144,3.716-4.189,3.716-9.138V9.547C365.862,4.599,364.624,1.553,362.146,0.412z"/>
</g>
</symbol>
<symbol id="next" viewBox="0 0 439.357 439.357">
<g>
	<path d="M360.427,5.833c-3.613-3.617-7.898-5.424-12.847-5.424h-36.545c-4.945,0-9.233,1.807-12.847,5.424
		c-3.614,3.621-5.428,7.902-5.428,12.85v193.574c-0.948-2.091-2.19-3.901-3.717-5.424L86.343,4.125
		c-3.617-3.617-6.663-4.856-9.136-3.713c-2.474,1.143-3.711,4.189-3.711,9.137v420.262c0,4.948,1.237,7.994,3.711,9.138
		c2.473,1.14,5.519-0.1,9.136-3.724L289.048,232.52c1.529-1.711,2.765-3.521,3.72-5.424V420.66c0,4.948,1.81,9.239,5.421,12.847
		c3.62,3.62,7.904,5.428,12.847,5.428h36.552c4.948,0,9.236-1.808,12.847-5.428c3.614-3.607,5.428-7.898,5.428-12.847V18.683
		C365.854,13.73,364.037,9.45,360.427,5.833z"/>
</g>
</symbol>

<symbol  id="play" viewBox="0 0 443.307 443.306" >
<g>
	<path d="M415.934,212.799L36.788,2.097C32.411-0.377,28.65-0.661,25.51,1.242c-3.14,1.902-4.708,5.328-4.708,10.276V431.78
		c0,4.952,1.569,8.381,4.708,10.284c3.14,1.902,6.901,1.622,11.278-0.855l379.146-210.703c4.381-2.478,6.571-5.434,6.571-8.856
		C422.505,218.224,420.314,215.274,415.934,212.799z"/>
</g>
</symbol>
<symbol id="auto" viewBox="0 0 512 512">
<path d="M288 39.056v16.659c0 10.804 7.281 20.159 17.686 23.066C383.204 100.434 440 171.518 440 256c0 101.689-82.295 184-184 184-101.689 0-184-82.295-184-184 0-84.47 56.786-155.564 134.312-177.219C216.719 75.874 224 66.517 224 55.712V39.064c0-15.709-14.834-27.153-30.046-23.234C86.603 43.482 7.394 141.206 8.003 257.332c.72 137.052 111.477 246.956 248.531 246.667C393.255 503.711 504 392.788 504 256c0-115.633-79.14-212.779-186.211-240.236C302.678 11.889 288 23.456 288 39.056z"/>
</symbol>
<symbol id="pause" viewBox="0 0 100 100"><path d="M39.806,72.858h-8.915c-2.176,0-3.94-1.764-3.94-3.94V31.119c0-2.176,1.764-3.94,3.94-3.94h8.915   c2.176,0,3.94,1.764,3.94,3.94v37.799C43.746,71.094,41.982,72.858,39.806,72.858z"/><path d="M68.109,72.821h-8.915c-2.176,0-3.94-1.764-3.94-3.94V31.082c0-2.176,1.764-3.94,3.94-3.94h8.915   c2.176,0,3.94,1.764,3.94,3.94v37.799C72.049,71.057,70.285,72.821,68.109,72.821z"/><path d="M40.489,27.248c0.769,0.719,1.257,1.735,1.257,2.871v37.799c0,2.176-1.764,3.94-3.94,3.94h-8.915   c-0.234,0-0.46-0.03-0.683-0.069c0.704,0.658,1.643,1.069,2.683,1.069h8.915c2.176,0,3.94-1.764,3.94-3.94V31.119   C43.746,29.177,42.338,27.573,40.489,27.248z"/><path d="M68.792,27.211c0.769,0.719,1.257,1.735,1.257,2.871v37.799c0,2.176-1.764,3.94-3.94,3.94h-8.915   c-0.234,0-0.46-0.03-0.683-0.069c0.704,0.658,1.643,1.069,2.683,1.069h8.915c2.176,0,3.94-1.764,3.94-3.94V31.082   C72.049,29.14,70.641,27.535,68.792,27.211z"/><path d="M39.806,72.858h-8.915c-2.176,0-3.94-1.764-3.94-3.94V31.119   c0-2.176,1.764-3.94,3.94-3.94h8.915c2.176,0,3.94,1.764,3.94,3.94v37.799C43.746,71.094,41.982,72.858,39.806,72.858z" style="fill:none;stroke:#000000;stroke-miterlimit:10;"/><path d="M68.109,72.821h-8.915c-2.176,0-3.94-1.764-3.94-3.94V31.082   c0-2.176,1.764-3.94,3.94-3.94h8.915c2.176,0,3.94,1.764,3.94,3.94v37.799C72.049,71.057,70.285,72.821,68.109,72.821z" style="fill:none;stroke:#000000;stroke-miterlimit:10;"/></g></symbol>
</svg>
